<svg width="17" height="16" viewBox="0 0 17 16" fill="none" xmlns="http://www.w3.org/2000/svg">
<path d="M12.5569 14.8934H4.57742C4.27509 14.8934 3.98515 14.7724 3.77137 14.557C3.5576 14.3416 3.4375 14.0494 3.4375 13.7447V3.40625H13.6968V13.7447C13.6968 14.0494 13.5767 14.3416 13.3629 14.557C13.1491 14.7724 12.8592 14.8934 12.5569 14.8934Z" stroke="currentColor" stroke-linecap="round" stroke-linejoin="round"/>
<path d="M6.85693 11.4464V6.85156" stroke="currentColor" stroke-linecap="round" stroke-linejoin="round"/>
<path d="M10.2764 11.4464V6.85156" stroke="currentColor" stroke-linecap="round" stroke-linejoin="round"/>
<path d="M1.15723 3.40625H15.9762" stroke="currentColor" stroke-linecap="round" stroke-linejoin="round"/>
<path d="M10.2765 1.10938H6.85672C6.55439 1.10938 6.26445 1.2304 6.05067 1.44583C5.8369 1.66125 5.7168 1.95343 5.7168 2.25809V3.40681H11.4164V2.25809C11.4164 1.95343 11.2963 1.66125 11.0825 1.44583C10.8687 1.2304 10.5788 1.10938 10.2765 1.10938Z" stroke="currentColor" stroke-linecap="round" stroke-linejoin="round"/>
</svg>
