<svg width="20" height="21" viewBox="0 0 20 21" fill="none" xmlns="http://www.w3.org/2000/svg">
<path d="M18.8665 0.878095C18.5461 0.654044 18.1673 0.528389 17.7765 0.516547C17.3857 0.504704 16.9999 0.607189 16.6665 0.811428L1.23321 10.4364C0.860739 10.6666 0.573714 11.0123 0.415842 11.4207C0.257969 11.8291 0.237899 12.2779 0.358689 12.6988C0.47948 13.1197 0.734511 13.4896 1.08494 13.7521C1.43538 14.0146 1.86201 14.1554 2.29987 14.1531H6.54154V17.8364C6.54073 18.2025 6.63959 18.5619 6.8275 18.8761C7.01541 19.1902 7.28529 19.4473 7.60821 19.6198C7.8999 19.7691 8.22219 19.849 8.54987 19.8531C8.95435 19.8537 9.34951 19.7317 9.68321 19.5031L11.8415 18.0031L13.0915 19.6698C13.2761 19.9245 13.5176 20.1325 13.7969 20.2772C14.0761 20.4219 14.3854 20.4992 14.6999 20.5031C14.854 20.503 15.0077 20.4862 15.1582 20.4531C15.5393 20.3588 15.8847 20.1558 16.1525 19.8688C16.4203 19.5818 16.5989 19.2231 16.6665 18.8364L19.6665 2.86143C19.7326 2.48908 19.6926 2.10568 19.5511 1.75498C19.4096 1.40429 19.1724 1.10043 18.8665 0.878095ZM1.56654 12.3531C1.52795 12.1976 1.53849 12.034 1.59669 11.8848C1.65488 11.7356 1.75789 11.6081 1.89154 11.5198L17.2999 1.86976L8.94154 12.9031H2.27487C2.11367 12.8987 1.95807 12.8429 1.83069 12.744C1.70331 12.6451 1.61078 12.5082 1.56654 12.3531ZM8.98321 18.4698C8.86884 18.5475 8.73541 18.5924 8.59735 18.5998C8.45928 18.6071 8.32183 18.5766 8.19987 18.5114C8.07703 18.4465 7.97415 18.3494 7.90222 18.2305C7.8303 18.1116 7.79204 17.9754 7.79154 17.8364V14.1531H8.93321L11.0915 17.0281L8.98321 18.4698ZM15.4499 18.6364C15.4208 18.7805 15.3509 18.9131 15.2485 19.0186C15.1461 19.1241 15.0156 19.1979 14.8725 19.2312C14.7293 19.2646 14.5796 19.2561 14.4412 19.2068C14.3027 19.1575 14.1814 19.0694 14.0915 18.9531L9.99987 13.5281L18.4582 2.43643C18.4708 2.5081 18.4708 2.58142 18.4582 2.6531L15.4499 18.6364Z" fill="currentColor"/>
</svg>
