<svg width="18" height="18" viewBox="0 0 18 18" fill="none" xmlns="http://www.w3.org/2000/svg">
<path d="M7.90944 1.82914C8.04707 1.98191 8.21526 2.10406 8.40312 2.18767C8.59098 2.27129 8.79431 2.31449 8.99994 2.31449C9.20557 2.31449 9.4089 2.27129 9.59676 2.18767C9.78461 2.10406 9.95281 1.98191 10.0904 1.82914L10.7999 1.05064C11.0033 0.825592 11.2713 0.668993 11.5672 0.602332C11.8631 0.535671 12.1723 0.562215 12.4525 0.678322C12.7327 0.794428 12.9701 0.994406 13.1321 1.25081C13.2942 1.50721 13.3729 1.80748 13.3574 2.11039L13.3042 3.16039C13.2939 3.36522 13.3266 3.56993 13.4002 3.76135C13.4739 3.95276 13.5868 4.12664 13.7317 4.27176C13.8766 4.41689 14.0503 4.53005 14.2416 4.60396C14.4329 4.67787 14.6376 4.71089 14.8424 4.70089L15.8924 4.64764C16.1952 4.63271 16.4951 4.71177 16.7511 4.87398C17.0071 5.03618 17.2067 5.2736 17.3225 5.55369C17.4384 5.83377 17.4647 6.14282 17.398 6.43847C17.3313 6.73413 17.1748 7.00191 16.9499 7.20514L16.1684 7.91014C16.0159 8.04796 15.8939 8.21626 15.8104 8.40417C15.7269 8.59207 15.6838 8.7954 15.6838 9.00101C15.6838 9.20663 15.7269 9.40995 15.8104 9.59786C15.8939 9.78576 16.0159 9.95406 16.1684 10.0919L16.9499 10.7969C17.175 11.0002 17.3316 11.2682 17.3982 11.5641C17.4649 11.86 17.4384 12.1693 17.3223 12.4495C17.2061 12.7297 17.0062 12.9671 16.7498 13.1291C16.4934 13.2911 16.1931 13.3698 15.8902 13.3544L14.8402 13.3011C14.6349 13.2906 14.4297 13.3232 14.2378 13.397C14.046 13.4707 13.8717 13.584 13.7264 13.7293C13.581 13.8747 13.4678 14.0489 13.394 14.2408C13.3203 14.4326 13.2876 14.6379 13.2982 14.8431L13.3514 15.8931C13.3649 16.1945 13.2852 16.4927 13.1232 16.7473C12.9613 17.0018 12.7249 17.2003 12.4462 17.3158C12.1675 17.4313 11.86 17.4582 11.5655 17.3929C11.2709 17.3276 11.0037 17.1732 10.7999 16.9506L10.0942 16.1699C9.95643 16.0173 9.7882 15.8954 9.60036 15.8119C9.41251 15.7284 9.20924 15.6853 9.00369 15.6853C8.79813 15.6853 8.59487 15.7284 8.40702 15.8119C8.21918 15.8954 8.05094 16.0173 7.91319 16.1699L7.20444 16.9506C7.00105 17.1742 6.73366 17.3296 6.43872 17.3956C6.14379 17.4617 5.83566 17.4352 5.55635 17.3197C5.27703 17.2043 5.04012 17.0055 4.87792 16.7504C4.71571 16.4954 4.6361 16.1966 4.64994 15.8946L4.70394 14.8446C4.7145 14.6394 4.68184 14.4341 4.60809 14.2423C4.53433 14.0504 4.42111 13.8762 4.27576 13.7308C4.13041 13.5855 3.95617 13.4722 3.7643 13.3985C3.57244 13.3247 3.36722 13.2921 3.16194 13.3026L2.11194 13.3559C1.80915 13.3717 1.5089 13.2934 1.25239 13.1317C0.99589 12.9701 0.795715 12.733 0.679351 12.453C0.562987 12.173 0.536139 11.8639 0.602492 11.568C0.668845 11.2722 0.825147 11.0041 1.04994 10.8006L1.83069 10.0956C1.98327 9.95781 2.10525 9.78951 2.18873 9.60161C2.27222 9.4137 2.31535 9.21038 2.31535 9.00476C2.31535 8.79915 2.27222 8.59582 2.18873 8.40792C2.10525 8.22001 1.98327 8.05171 1.83069 7.91389L1.04994 7.20514C0.825876 7.00189 0.670051 6.7344 0.603765 6.43924C0.537479 6.14408 0.563966 5.83565 0.679606 5.55611C0.795246 5.27657 0.994395 5.03957 1.24983 4.87749C1.50527 4.71542 1.80452 4.63619 2.10669 4.65064L3.15669 4.70389C3.36236 4.7147 3.56801 4.68213 3.76027 4.60829C3.95254 4.53445 4.12712 4.421 4.27268 4.27529C4.41824 4.12959 4.53153 3.9549 4.60518 3.76256C4.67883 3.57023 4.7112 3.36455 4.70019 3.15889L4.64994 2.10814C4.63577 1.80608 4.71514 1.50702 4.87722 1.25174C5.0393 0.996467 5.2762 0.797419 5.55559 0.681759C5.83498 0.566098 6.14325 0.539459 6.43834 0.605476C6.73343 0.671493 7.00097 0.826951 7.20444 1.05064L7.90944 1.82914Z" stroke="#4152B4" stroke-linecap="round" stroke-linejoin="round"/>
<path d="M5.625 9.00195C5.625 9.89706 5.98058 10.7555 6.61351 11.3884C7.24645 12.0214 8.10489 12.377 9 12.377C9.89511 12.377 10.7535 12.0214 11.3865 11.3884C12.0194 10.7555 12.375 9.89706 12.375 9.00195C12.375 8.10685 12.0194 7.2484 11.3865 6.61547C10.7535 5.98253 9.89511 5.62695 9 5.62695C8.10489 5.62695 7.24645 5.98253 6.61351 6.61547C5.98058 7.2484 5.625 8.10685 5.625 9.00195V9.00195Z" stroke="#4152B4" stroke-linecap="round" stroke-linejoin="round"/>
</svg>
