<svg fill="none" xmlns="http://www.w3.org/2000/svg">
<path d="M10 13.75C12.0711 13.75 13.75 12.0711 13.75 10C13.75 7.92893 12.0711 6.25 10 6.25C7.92893 6.25 6.25 7.92893 6.25 10C6.25 12.0711 7.92893 13.75 10 13.75Z" stroke="currentColor" stroke-width="1"/>
<path d="M9.59935 3.44944L8.12517 2.34413C8.04608 2.28463 7.95397 2.24478 7.85645 2.22786C7.75893 2.21094 7.65879 2.21744 7.56427 2.24682C7.10771 2.38979 6.66475 2.57306 6.24063 2.79446C6.15284 2.84051 6.07725 2.90678 6.02012 2.9878C5.96298 3.06882 5.92593 3.16227 5.91203 3.26043L5.65142 5.08472C5.55209 5.17278 5.45484 5.26436 5.35967 5.35947C5.26453 5.45461 5.17293 5.55189 5.08485 5.6513L5.08481 5.65133L3.26085 5.91217C3.16284 5.92602 3.06954 5.96297 2.98862 6.01996C2.90769 6.07696 2.84148 6.15236 2.79542 6.23997C2.57367 6.66391 2.39005 7.10672 2.24671 7.56317C2.21719 7.65781 2.2106 7.75812 2.22749 7.85581C2.24438 7.9535 2.28426 8.04578 2.34384 8.12502L3.44953 9.59926C3.44155 9.73176 3.43754 9.86529 3.4375 9.99983C3.4375 10.1344 3.44151 10.2679 3.44953 10.4005L3.44953 10.4006L2.34422 11.8747C2.28472 11.9538 2.24487 12.0459 2.22795 12.1435C2.21103 12.241 2.21753 12.3411 2.24691 12.4356C2.38988 12.8922 2.57315 13.3352 2.79455 13.7593C2.84061 13.8471 2.90688 13.9227 2.9879 13.9798C3.06892 14.0369 3.16236 14.074 3.26052 14.0879L5.08481 14.3485C5.17286 14.4478 5.26445 14.5451 5.35956 14.6402C5.4547 14.7354 5.55197 14.827 5.65139 14.9151L5.65142 14.9151L5.91225 16.7391C5.92611 16.8371 5.96306 16.9304 6.02005 17.0113C6.07704 17.0922 6.15245 17.1584 6.24006 17.2045C6.664 17.4262 7.10681 17.6099 7.56326 17.7532C7.6579 17.7827 7.75821 17.7893 7.8559 17.7724C7.95359 17.7555 8.04587 17.7157 8.12511 17.6561L9.59935 16.5504C9.73185 16.5584 9.86538 16.5624 9.99992 16.5624C10.1345 16.5624 10.268 16.5584 10.4006 16.5504L10.4007 16.5504L11.8748 17.6557C11.9539 17.7152 12.046 17.755 12.1436 17.772C12.2411 17.7889 12.3412 17.7824 12.4357 17.753C12.8923 17.61 13.3353 17.4268 13.7594 17.2054C13.8472 17.1593 13.9228 17.093 13.9799 17.012C14.037 16.931 14.0741 16.8376 14.088 16.7394L14.3486 14.9151C14.4479 14.8271 14.5452 14.7355 14.6403 14.6404C14.7355 14.5452 14.8271 14.4479 14.9152 14.3485L14.9152 14.3485L16.7392 14.0877C16.8372 14.0738 16.9305 14.0369 17.0114 13.9799C17.0923 13.9229 17.1585 13.8475 17.2046 13.7599C17.4263 13.3359 17.61 12.8931 17.7533 12.4367C17.7828 12.342 17.7894 12.2417 17.7725 12.144C17.7556 12.0463 17.7158 11.9541 17.6562 11.8748L16.5505 10.4006C16.5585 10.2681 16.5625 10.1345 16.5625 9.99999C16.5625 9.86545 16.5585 9.73189 16.5505 9.59931L16.5505 9.59926L17.6558 8.12508C17.7153 8.04599 17.7551 7.95388 17.7721 7.85636C17.789 7.75884 17.7825 7.6587 17.7531 7.56418C17.6101 7.10761 17.4269 6.66466 17.2055 6.24054C17.1594 6.15275 17.0931 6.07716 17.0121 6.02002C16.9311 5.96289 16.8376 5.92584 16.7395 5.91193L14.9152 5.65133C14.8271 5.552 14.7356 5.45474 14.6404 5.35958C14.5453 5.26444 14.448 5.17284 14.3486 5.08476L14.3486 5.08472L14.0878 3.26075C14.0739 3.16275 14.037 3.06944 13.98 2.98852C13.923 2.9076 13.8476 2.84138 13.7599 2.79533C13.336 2.57358 12.8932 2.38996 12.4368 2.24662C12.3421 2.2171 12.2418 2.21051 12.1441 2.2274C12.0464 2.24429 11.9541 2.28417 11.8749 2.34374L10.4007 3.44944C10.2682 3.44146 10.1346 3.43745 10.0001 3.43741C9.86554 3.43741 9.73198 3.44142 9.5994 3.44944L9.59935 3.44944Z" stroke="currentColor" stroke-width="1"/>
</svg>
