<svg fill="none" xmlns="http://www.w3.org/2000/svg">
<path d="M16.9444 16.25H3.07692C2.92405 16.2496 2.77757 16.1886 2.66947 16.0805C2.56137 15.9724 2.50045 15.8259 2.5 15.6731V6.25H16.875C17.0408 6.25 17.1997 6.31585 17.3169 6.43306C17.4342 6.55027 17.5 6.70924 17.5 6.875V15.6944C17.5 15.8418 17.4415 15.9831 17.3373 16.0873C17.2331 16.1915 17.0918 16.25 16.9444 16.25V16.25Z" stroke="currentColor" stroke-linecap="round" stroke-linejoin="round"/>
<path d="M2.5 6.25V4.375C2.5 4.20924 2.56585 4.05027 2.68306 3.93306C2.80027 3.81585 2.95924 3.75 3.125 3.75H7.24112C7.32319 3.75 7.40447 3.76617 7.48029 3.79758C7.55612 3.82898 7.62502 3.87502 7.68306 3.93306L10 6.25" stroke="currentColor" stroke-linecap="round" stroke-linejoin="round"/>
</svg>
