<svg width="152" height="150" viewBox="0 0 152 150" fill="none" xmlns="http://www.w3.org/2000/svg">
<path d="M75.0639 150C116.521 150 150.128 116.421 150.128 75C150.128 33.5786 116.521 0 75.0639 0C33.6073 0 0 33.5786 0 75C0 116.421 33.6073 150 75.0639 150Z" fill="#C1C6DE" fill-opacity="0.4"/>
<path d="M75.0637 134.02C91.9918 134.02 105.715 131.933 105.715 129.358C105.715 126.783 91.9918 124.695 75.0637 124.695C58.1356 124.695 44.4126 126.783 44.4126 129.358C44.4126 131.933 58.1356 134.02 75.0637 134.02Z" fill="#C1C6DE"/>
<path d="M78.811 30.4689H44.3129C43.4669 30.4639 42.6283 30.6261 41.8453 30.9462C41.0623 31.2662 40.3504 31.7378 39.7505 32.3337C39.1505 32.9297 38.6744 33.6383 38.3495 34.4187C38.0246 35.1992 37.8574 36.0361 37.8574 36.8814V101.069C37.8574 101.914 38.0246 102.752 38.3494 103.532C38.6742 104.313 39.1502 105.022 39.7501 105.619C40.3499 106.215 41.0618 106.687 41.8449 107.008C42.6279 107.329 43.4667 107.492 44.3129 107.488H95.7067C96.55 107.488 97.3851 107.322 98.1642 106.999C98.9433 106.676 99.651 106.203 100.247 105.607C100.843 105.011 101.316 104.303 101.638 103.525C101.96 102.746 102.125 101.911 102.125 101.069V53.7251L78.811 30.4689Z" fill="#4152B4" fill-opacity="0.25" stroke="#434D8B" stroke-opacity="0.75" stroke-miterlimit="10"/>
<path d="M82.6079 34.8008H48.066C46.3644 34.8041 44.7336 35.4818 43.5315 36.6852C42.3294 37.8886 41.6543 39.5193 41.6543 41.2195V105.401C41.6543 107.101 42.3294 108.732 43.5315 109.935C44.7336 111.139 46.3644 111.816 48.066 111.82H99.4598C101.164 111.82 102.798 111.143 104.002 109.94C105.207 108.736 105.884 107.103 105.884 105.401V58.057L82.6079 34.8008Z" fill="#E1E4F2" stroke="#434D8B" stroke-opacity="0.75" stroke-miterlimit="10"/>
<path d="M87.0681 38.8242H52.5449C51.7008 38.8242 50.8649 38.9905 50.085 39.3134C49.3052 39.6364 48.5967 40.1097 48.0001 40.7064C47.4035 41.3031 46.9304 42.0115 46.6079 42.791C46.2855 43.5704 46.1199 44.4058 46.1207 45.2492V109.424C46.1158 110.27 46.2783 111.108 46.599 111.891C46.9197 112.674 47.3923 113.385 47.9894 113.985C48.5865 114.585 49.2964 115.06 50.0783 115.384C50.8601 115.709 51.6984 115.875 52.5449 115.874H103.932C105.636 115.874 107.27 115.198 108.475 113.994C109.68 112.79 110.357 111.158 110.357 109.455V62.0867L87.0681 38.8242Z" fill="white" stroke="#434D8B" stroke-opacity="0.75" stroke-miterlimit="10"/>
<path d="M86.2983 39.168V58.443C86.2983 59.6382 86.7722 60.7847 87.6163 61.6316C88.4604 62.4785 89.606 62.9568 90.8022 62.9617L110.194 63.0305" fill="#E1E4F2"/>
<path d="M86.2983 39.168V58.443C86.2983 59.6382 86.7722 60.7847 87.6163 61.6316C88.4604 62.4785 89.606 62.9568 90.8022 62.9617L110.194 63.0305" stroke="#434D8B" stroke-opacity="0.75" stroke-miterlimit="10"/>
<path d="M103.088 74.5C103.088 74.1022 102.74 73.7206 102.119 73.4393C101.499 73.158 100.658 73 99.7814 73H57.3526C56.4757 73 55.6347 73.158 55.0146 73.4393C54.3945 73.7206 54.0461 74.1022 54.0461 74.5C54.0461 74.8978 54.3945 75.2794 55.0146 75.5607C55.6347 75.842 56.4757 76 57.3526 76H99.7814C100.658 76 101.499 75.842 102.119 75.5607C102.74 75.2794 103.088 74.8978 103.088 74.5Z" fill="#C1C6DE" fill-opacity="0.5"/>
<path d="M103.088 82.5C103.088 82.1022 102.74 81.7206 102.119 81.4393C101.499 81.158 100.658 81 99.7814 81H57.3526C56.4757 81 55.6347 81.158 55.0146 81.4393C54.3945 81.7206 54.0461 82.1022 54.0461 82.5C54.0461 82.8978 54.3945 83.2794 55.0146 83.5607C55.6347 83.842 56.4757 84 57.3526 84H99.7814C100.658 84 101.499 83.842 102.119 83.5607C102.74 83.2794 103.088 82.8978 103.088 82.5Z" fill="#C1C6DE" fill-opacity="0.5"/>
<path d="M103.088 89.5C103.088 89.1022 102.74 88.7206 102.119 88.4393C101.499 88.158 100.658 88 99.7814 88H57.3526C56.4757 88 55.6347 88.158 55.0146 88.4393C54.3945 88.7206 54.0461 89.1022 54.0461 89.5C54.0461 89.8978 54.3945 90.2794 55.0146 90.5607C55.6347 90.842 56.4757 91 57.3526 91H99.7814C100.658 91 101.499 90.842 102.119 90.5607C102.74 90.2794 103.088 89.8978 103.088 89.5Z" fill="#C1C6DE" fill-opacity="0.5"/>
<path d="M42.3296 8.96097C42.1529 8.95609 41.982 8.89713 41.8399 8.79207C41.6978 8.687 41.5915 8.54089 41.5352 8.37347C40.8806 6.51796 39.666 4.91107 38.0588 3.77442C36.4516 2.63776 34.531 2.02734 32.5619 2.02734C30.5928 2.02734 28.6723 2.63776 27.0651 3.77442C25.4579 4.91107 24.2432 6.51796 23.5886 8.37347C23.5291 8.53905 23.4207 8.68267 23.2778 8.78534C23.1348 8.88802 22.964 8.9449 22.788 8.94847C21.7636 8.9653 20.7526 9.18355 19.8126 9.59077C18.8727 9.99799 18.0222 10.5862 17.3098 11.3218C15.871 12.8074 15.0818 14.8033 15.1158 16.8703C15.1498 18.9374 16.0043 20.9063 17.4912 22.3438C18.9781 23.7814 20.9756 24.57 23.0444 24.536H42.0794C44.0529 24.4345 45.9141 23.5878 47.2865 22.1672C48.6589 20.7466 49.4401 18.8582 49.4718 16.8841C49.5036 14.9099 48.7837 12.9974 47.4578 11.5334C46.1318 10.0694 44.2988 9.16336 42.3296 8.99847V8.96097Z" fill="white" stroke="#434D8B" stroke-opacity="0.75" stroke-miterlimit="10"/>
<path d="M142.734 73.0815C142.56 73.0763 142.392 73.0186 142.251 72.916C142.11 72.8134 142.004 72.6706 141.946 72.5065C141.29 70.6517 140.074 69.0458 138.467 67.9099C136.859 66.774 134.939 66.1641 132.97 66.1641C131.001 66.1641 129.08 66.774 127.473 67.9099C125.865 69.0458 124.649 70.6517 123.993 72.5065C123.935 72.6716 123.828 72.815 123.686 72.9177C123.544 73.0204 123.374 73.0776 123.199 73.0815C122.175 73.0979 121.165 73.3156 120.226 73.7221C119.286 74.1287 118.436 74.7161 117.724 75.4508C117.012 76.1856 116.452 77.0533 116.075 78.0044C115.699 78.9555 115.513 79.9714 115.53 80.994C115.546 82.0167 115.764 83.0261 116.171 83.9647C116.578 84.9032 117.166 85.7525 117.901 86.464C118.636 87.1755 119.505 87.7354 120.457 88.1116C121.409 88.4878 122.426 88.6729 123.449 88.6565H142.522C144.557 88.6403 146.505 87.8294 147.95 86.397C149.394 84.9646 150.221 83.0245 150.253 80.9912C150.285 78.9579 149.519 76.9928 148.12 75.516C146.721 74.0391 144.799 73.1676 142.766 73.0878L142.734 73.0815Z" fill="white" stroke="#434D8B" stroke-opacity="0.75" stroke-miterlimit="10"/>
<path d="M79.0674 66.5C79.0674 66.1022 78.8896 65.7206 78.5733 65.4393C78.2569 65.158 77.8278 65 77.3804 65H55.7331C55.2857 65 54.8566 65.158 54.5402 65.4393C54.2238 65.7206 54.0461 66.1022 54.0461 66.5C54.0461 66.8978 54.2238 67.2794 54.5402 67.5607C54.8566 67.842 55.2857 68 55.7331 68H77.3804C77.8278 68 78.2569 67.842 78.5733 67.5607C78.8896 67.2794 79.0674 66.8978 79.0674 66.5Z" fill="#C1C6DE"/>
</svg>
