<svg  fill="none" xmlns="http://www.w3.org/2000/svg">
<path d="M14.4524 2.89582L11.1742 6.1741L11.6161 8.3838L13.8258 8.82575L17.1041 5.54747L17.1044 5.54734C17.5102 6.50517 17.6072 7.56569 17.382 8.58126C17.1568 9.59684 16.6206 10.5169 15.848 11.2135C15.0754 11.91 14.1049 12.3484 13.0715 12.4675C12.0381 12.5866 10.9933 12.3806 10.0824 11.8781L10.0825 11.8779L5.7008 16.9507C5.3491 17.302 4.8723 17.4993 4.3752 17.4992C3.8781 17.499 3.40141 17.3015 3.04991 16.95C2.69841 16.5985 2.50087 16.1218 2.50073 15.6247C2.50059 15.1276 2.69785 14.6508 3.04915 14.2991L8.12192 9.91742L8.12181 9.91748C7.61931 9.00666 7.41327 7.96183 7.53239 6.92843C7.65151 5.89504 8.08986 4.92449 8.78641 4.15188C9.48296 3.37928 10.4031 2.84306 11.4186 2.61788C12.4342 2.39269 13.4947 2.48974 14.4526 2.89551L14.4524 2.89582Z" stroke="currentColor" stroke-linecap="round" stroke-linejoin="round"/>
</svg>
