<svg fill="none" xmlns="http://www.w3.org/2000/svg">
<path d="M9.55805 5.58063L11.1049 4.03383C11.424 3.71439 11.803 3.46095 12.2201 3.288C12.6372 3.11505 13.0843 3.02598 13.5359 3.02588C13.9874 3.02577 14.4346 3.11464 14.8518 3.28739C15.269 3.46014 15.648 3.7134 15.9673 4.0327C16.2866 4.352 16.5399 4.73107 16.7127 5.14827C16.8854 5.56548 16.9743 6.01263 16.9742 6.46418C16.9741 6.91573 16.885 7.36284 16.712 7.77996C16.5391 8.19708 16.2857 8.57604 15.9662 8.89519L13.7565 11.1049C13.4373 11.4241 13.0584 11.6773 12.6413 11.8501C12.2242 12.0228 11.7772 12.1117 11.3258 12.1117C10.8744 12.1117 10.4274 12.0228 10.0103 11.8501C9.59329 11.6773 9.21434 11.4241 8.89514 11.1049" stroke="currentColor" stroke-linecap="round" stroke-linejoin="round"/>
<path d="M10.4419 14.4195L8.89513 15.9663C8.57598 16.2858 8.19702 16.5392 7.7799 16.7121C7.36278 16.8851 6.91567 16.9742 6.46412 16.9743C6.01256 16.9744 5.56541 16.8855 5.14821 16.7128C4.73101 16.54 4.35193 16.2867 4.03264 15.9674C3.71334 15.6482 3.46008 15.2691 3.28733 14.8519C3.11458 14.4347 3.02571 13.9875 3.02582 13.536C3.02592 13.0844 3.11499 12.6373 3.28794 12.2202C3.46089 11.8031 3.71433 11.4241 4.03377 11.105L6.24348 8.89525C6.56268 8.57605 6.94163 8.32284 7.35868 8.15009C7.77574 7.97734 8.22274 7.88843 8.67416 7.88843C9.12558 7.88843 9.57258 7.97734 9.98963 8.15009C10.4067 8.32284 10.7856 8.57605 11.1048 8.89525" stroke="currentColor" stroke-linecap="round" stroke-linejoin="round"/>
</svg>
