<svg fill="none" xmlns="http://www.w3.org/2000/svg">
<path d="M5.3125 16.875C6.52062 16.875 7.5 15.8956 7.5 14.6875C7.5 13.4794 6.52062 12.5 5.3125 12.5C4.10438 12.5 3.125 13.4794 3.125 14.6875C3.125 15.8956 4.10438 16.875 5.3125 16.875Z" stroke="currentColor" stroke-linecap="round" stroke-linejoin="round"/>
<path d="M5.3125 7.5C6.52062 7.5 7.5 6.52062 7.5 5.3125C7.5 4.10438 6.52062 3.125 5.3125 3.125C4.10438 3.125 3.125 4.10438 3.125 5.3125C3.125 6.52062 4.10438 7.5 5.3125 7.5Z" stroke="currentColor" stroke-linecap="round" stroke-linejoin="round"/>
<path d="M5.3125 7.5V12.5" stroke="currentColor" stroke-linecap="round" stroke-linejoin="round"/>
<path d="M14.6877 16.875C15.8958 16.875 16.8752 15.8956 16.8752 14.6875C16.8752 13.4794 15.8958 12.5 14.6877 12.5C13.4796 12.5 12.5002 13.4794 12.5002 14.6875C12.5002 15.8956 13.4796 16.875 14.6877 16.875Z" stroke="currentColor" stroke-linecap="round" stroke-linejoin="round"/>
<path d="M14.6877 12.5L14.6876 9.36571C14.6875 8.3712 14.2924 7.41744 13.5892 6.71421L10.625 3.75" stroke="currentColor" stroke-linecap="round" stroke-linejoin="round"/>
<path d="M10.625 6.875V3.75H13.75" stroke="currentColor" stroke-linecap="round" stroke-linejoin="round"/>
</svg>
